<svg xmlns="http://www.w3.org/2000/svg" viewBox="0 0 1920 1080">

    <filter id="blur">
        <feGaussianBlur stdDeviation="50" />
    </filter>

    <g id="cloud_blur">
        <path d="M-68,360s22-75,116-46c0,0-27-151,148-178s168.18,201,266.59,224,133.41-84,290.41-21,8.63,211,139.82,250.5,47.18,98.5,89.18,123.5,32,63,32,63c0,0-16,64,27,60s54,38,62,51,52,22,80-56,85-91,137-72,7,52,59,59-84-82-44-127,147,1,154-31-9-30,26-46,5-26,37-56c32-30-80-22-10-115,70-93,118-87,183-88s-29-179,47-203,71,9,102-66S2003,0,2003,0V1208H-68V360Z"
            fill="#e1bef0" filter="url(#blur)" />
    </g>

    <g id="cloud_foreground">
        <circle cx="289.5" cy="651.5" r="105.5" fill="#ab87de" />
        <circle cx="418.5" cy="775.5" r="136.5" fill="#ab87de" />
        <circle cx="165.5" cy="802.5" r="165.5" fill="#ab87de" />
        <circle cx="30" cy="949" r="195" fill="#ab87de" />
        <circle cx="316.5" cy="967.5" r="151.5" fill="#ab87de" />
        <circle cx="135" cy="1071" r="90" fill="#ab87de" />
        <circle cx="504.5" cy="1144.5" r="91.5" fill="#ab87de" />
        <circle cx="516.5" cy="1091.5" r="157.5" fill="#ab87de" />
        <circle cx="633.5" cy="1020.5" r="71.5" fill="#ab87de" />
        <circle cx="718" cy="1103" r="97" fill="#ab87de" />
        <circle cx="892.5" cy="1154.5" r="83.5" fill="#ab87de" />
        <ellipse cx="554.5" cy="905" rx="195.5" ry="7" fill="#ab87de" />
        <ellipse cx="1225.5" cy="977" rx="195.5" ry="7" fill="#ab87de" />
        <circle cx="403" cy="604" r="50" fill="#ab87de" />
        <circle cx="798.5" cy="1135.5" r="93.5" fill="#ab87de" />
        <circle cx="1871.5" cy="509.5" r="74.5" fill="#ab87de" />
        <circle cx="1774" cy="671" r="146" fill="#ab87de" />
        <circle cx="1864.5" cy="1023.5" r="121.5" fill="#ab87de" />
        <circle cx="1615" cy="825" r="120" fill="#ab87de" />
        <circle cx="1844.5" cy="704.5" r="120.5" fill="#ab87de" />
        <circle cx="1942.5" cy="602.5" r="77.5" fill="#ab87de" />
        <circle cx="1791" cy="869" r="115" fill="#ab87de" />
        <circle cx="1400" cy="802" r="175" fill="#ab87de" />
        <circle cx="1734.5" cy="892.5" r="130.5" fill="#ab87de" />
        <circle cx="1894.5" cy="845.5" r="120.5" fill="#ab87de" />
        <circle cx="1358.5" cy="638.5" r="121.5" fill="#ab87de" />
        <circle cx="1484.5" cy="626.5" r="62.5" fill="#ab87de" />
        <circle cx="1268.5" cy="715.5" r="81.5" fill="#ab87de" />
        <circle cx="1609" cy="1111" r="188" fill="#ab87de" />
        <circle cx="1580" cy="932" r="96" fill="#ab87de" />
        <circle cx="1495" cy="1092" r="160" fill="#ab87de" />
        <circle cx="1335" cy="1166" r="160" fill="#ab87de" />
        <circle cx="868" cy="1103" r="160" fill="#ab87de" />
        <circle cx="1128" cy="1188" r="160" fill="#ab87de" />
        <circle cx="1036.27" cy="1042.45" r="43.45" fill="#ab87de" />
        <circle cx="1572.5" cy="704.5" r="112.5" fill="#ab87de" />
        <circle cx="1249" cy="836" r="89" fill="#ab87de" />
        <circle cx="1350.5" cy="904.5" r="81.5" fill="#ab87de" />
        <ellipse cx="493.5" cy="639.5" rx="97.5" ry="3.5" fill="#ab87de" />
        <ellipse cx="1214.5" cy="754.5" rx="97.5" ry="3.5" fill="#ab87de" />
        <ellipse cx="1797.5" cy="490.5" rx="97.5" ry="3.5" fill="#ab87de" />
    </g>

    <g id="sparkle" fill="#ffeedc">
        <path d="M274.72,370.5c-45.43,8.72-52.5,15.78-61.22,61.22-8.72-45.43-15.78-52.5-61.22-61.22,45.43-8.72,52.5-15.78,61.22-61.22,8.72,45.43,15.78,52.5,61.22,61.22Z"
            fill="inherit" />
        <path d="M435.81,239.17c-88.7,17.02-102.5,30.82-119.52,119.52-17.02-88.7-30.82-102.5-119.52-119.52,88.7-17.02,102.5-30.82,119.52-119.52,17.02,88.7,30.82,102.5,119.52,119.52Z"
            fill="inherit" />
        <path d="M288.9,883.96c-71.44,13.71-82.55,24.82-96.26,96.26-13.71-71.44-24.82-82.55-96.26-96.26,71.44-13.71,82.55-24.82,96.26-96.26,13.71,71.44,24.82,82.55,96.26,96.26Z"
            fill="inherit" />
        <path d="M1796.9,946.09c-71.44,13.71-82.55,24.82-96.26,96.26-13.71-71.44-24.82-82.55-96.26-96.26,71.44-13.71,82.55-24.82,96.26-96.26,13.71,71.44,24.82,82.55,96.26,96.26Z"
            fill="inherit" />
        <path d="M1778.16,781.42c-40.33,7.74-46.6,14.01-54.34,54.34-7.74-40.33-14.01-46.6-54.34-54.34,40.33-7.74,46.6-14.01,54.34-54.34,7.74,40.33,14.01,46.6,54.34,54.34Z"
            fill="inherit" />
        <path d="M1722.03,172.07c-30.76,5.9-35.55,10.69-41.45,41.45-5.9-30.76-10.69-35.55-41.45-41.45,30.76-5.9,35.55-10.69,41.45-41.45,5.9,30.76,10.69,35.55,41.45,41.45Z"
            fill="inherit" />
        <path d="M969.63,105.95c-16.58,3.18-19.16,5.76-22.34,22.34-3.18-16.58-5.76-19.16-22.34-22.34,16.58-3.18,19.16-5.76,22.34-22.34,3.18,16.58,5.76,19.16,22.34,22.34Z"
            fill="inherit" />
        <path d="M143.57,740.02c-16.58,3.18-19.16,5.76-22.34,22.34-3.18-16.58-5.76-19.16-22.34-22.34,16.58-3.18,19.16-5.76,22.34-22.34,3.18,16.58,5.76,19.16,22.34,22.34Z"
            fill="inherit" />
        <circle cx="151.5" cy="503.5" r="9.5" fill="inherit" />
        <circle cx="1036.5" cy="115.5" r="9.5" fill="inherit" />
        <circle cx="603.48" cy="146.46" r="12.52" fill="inherit" />
        <circle cx="1092.08" cy="173.63" r="12.52" fill="inherit" />
        <circle cx="1699.82" cy="293.59" r="30.41" fill="inherit" />
        <circle cx="1724" cy="592" r="5" fill="inherit" />
        <circle cx="1710" cy="117" r="5" fill="inherit" />
    </g>
</svg>