<?xml version="1.0" encoding="UTF-8"?><svg id="a" xmlns="http://www.w3.org/2000/svg" viewBox="0 0 1920 1080"><g id="b"><g><rect x="1396.92" y="726.29" width="446.17" height="264.94" transform="translate(411.82 2237.95) rotate(-76.71)" fill="#ffe2d4"/><path d="M1542.78,611.88l256.75,60.65-102.31,433.12-256.75-60.65,102.31-433.12m-.84-1.35l-102.83,435.31,258.94,61.17,102.83-435.31-258.94-61.17h0Z"/></g><g><rect x="1564.57" y="628.44" width="166.49" height="225.15" transform="translate(547.83 2174.34) rotate(-76.71)" fill="#ecc9f2"/><path d="M1557.8,634.79l218.04,51.51-38.02,160.95-218.04-51.51,38.02-160.95m-.83-1.34l-38.53,163.11,220.2,52.02,38.53-163.11-220.2-52.02h0Z"/></g><circle cx="1602.08" cy="946.02" r="84.33"/><circle cx="1602.56" cy="943.98" r="26.71" fill="#ffe2d4"/><text transform="translate(1597.63 880.62) rotate(13.29)" fill="#fff" font-family="OpenSans, Open Sans" font-size="12.57"><tspan x="0" y="0">MENU</tspan></text><g><polygon points="1530.14 927.03 1538.76 935.14 1541.47 923.63 1530.14 927.03" fill="#fff"/><polygon points="1539.32 929.2 1547.93 937.31 1550.65 925.8 1539.32 929.2" fill="#fff"/><rect x="1529.53" y="922.15" width="1.05" height="10.48" transform="translate(2805.94 2181.69) rotate(-166.71)" fill="#fff"/></g><g><polygon points="1673.08 958.86 1664.47 950.75 1661.75 962.26 1673.08 958.86" fill="#fff"/><polygon points="1663.9 956.7 1655.29 948.58 1652.57 960.1 1663.9 956.7" fill="#fff"/><rect x="1672.74" y="953.83" width="1.05" height="10.48" transform="translate(3081.23 2277.11) rotate(-166.71)" fill="#fff"/></g><polygon points="1587.93 1004.21 1579.32 996.1 1576.6 1007.61 1587.93 1004.21" fill="#fff"/><rect x="1596.49" y="1000.94" width="1.05" height="10.48" transform="translate(2919.95 2352.54) rotate(-166.71)" fill="#fff"/><rect x="1601.59" y="1002.14" width="1.05" height="10.48" transform="translate(2929.73 2356.09) rotate(-166.71)" fill="#fff"/></g></svg>