<?xml version="1.0" encoding="UTF-8"?><svg id="a" xmlns="http://www.w3.org/2000/svg" viewBox="0 0 1920 1080"><g id="b"><rect x="1626.37" y="734.12" width="4.84" height="4.84" transform="translate(212.95 -354.72) rotate(13.29)" fill="#dd506f"/><rect x="1635.78" y="736.34" width="4.84" height="4.84" transform="translate(213.71 -356.82) rotate(13.29)" fill="#dd506f"/><rect x="1636.89" y="731.63" width="4.84" height="4.84" transform="translate(212.66 -357.2) rotate(13.29)" fill="#dd506f"/><rect x="1641.6" y="732.74" width="4.84" height="4.84" transform="translate(213.04 -358.26) rotate(13.29)" fill="#dd506f"/><rect x="1646.31" y="733.86" width="4.84" height="4.84" transform="translate(213.42 -359.31) rotate(13.29)" fill="#dd506f"/><rect x="1638.01" y="726.92" width="4.84" height="4.84" transform="translate(211.61 -357.59) rotate(13.29)" fill="#dd506f"/><rect x="1625.26" y="738.82" width="4.84" height="4.84" transform="translate(214 -354.34) rotate(13.29)" fill="#dd506f"/><rect x="1624.14" y="743.53" width="4.84" height="4.84" transform="translate(215.05 -353.95) rotate(13.29)" fill="#dd506f"/><rect x="1629.96" y="739.94" width="4.84" height="4.84" transform="translate(214.38 -355.39) rotate(13.29)" fill="#dd506f"/><rect x="1634.67" y="741.05" width="4.84" height="4.84" transform="translate(214.76 -356.44) rotate(13.29)" fill="#dd506f"/><rect x="1633.56" y="745.75" width="4.84" height="4.84" transform="translate(215.82 -356.06) rotate(13.29)" fill="#dd506f"/><rect x="1638.27" y="746.87" width="4.84" height="4.84" transform="translate(216.2 -357.11) rotate(13.29)" fill="#dd506f"/><rect x="1642.97" y="747.98" width="4.84" height="4.84" transform="translate(216.58 -358.16) rotate(13.29)" fill="#dd506f"/><rect x="1644.09" y="743.27" width="4.84" height="4.84" transform="translate(215.53 -358.55) rotate(13.29)" fill="#dd506f"/><rect x="1648.79" y="744.38" width="4.84" height="4.84" transform="translate(215.91 -359.6) rotate(13.29)" fill="#dd506f"/><rect x="1654.61" y="740.79" width="4.84" height="4.84" transform="translate(215.24 -361.03) rotate(13.29)" fill="#dd506f"/><rect x="1659.32" y="741.9" width="4.84" height="4.84" transform="translate(215.62 -362.08) rotate(13.29)" fill="#dd506f"/><rect x="1658.21" y="746.61" width="4.84" height="4.84" transform="translate(216.67 -361.7) rotate(13.29)" fill="#dd506f"/><rect x="1657.1" y="751.31" width="4.84" height="4.84" transform="translate(217.73 -361.32) rotate(13.29)" fill="#dd506f"/><rect x="1652.39" y="750.2" width="4.84" height="4.84" transform="translate(217.34 -360.27) rotate(13.29)" fill="#dd506f"/><rect x="1651.28" y="754.91" width="4.84" height="4.84" transform="translate(218.4 -359.89) rotate(13.29)" fill="#dd506f"/><rect x="1645.46" y="758.51" width="4.84" height="4.84" transform="translate(219.07 -358.45) rotate(13.29)" fill="#dd506f"/><rect x="1639.64" y="762.1" width="4.84" height="4.84" transform="translate(219.74 -357.02) rotate(13.29)" fill="#dd506f"/><rect x="1634.93" y="760.99" width="4.84" height="4.84" transform="translate(219.36 -355.97) rotate(13.29)" fill="#dd506f"/><rect x="1631.33" y="755.17" width="4.84" height="4.84" transform="translate(217.92 -355.3) rotate(13.29)" fill="#dd506f"/><rect x="1627.74" y="749.35" width="4.84" height="4.84" transform="translate(216.49 -354.62) rotate(13.29)" fill="#dd506f"/><rect x="1628.85" y="744.64" width="4.84" height="4.84" transform="translate(215.43 -355.01) rotate(13.29)" fill="#d43662"/><rect x="1632.45" y="750.46" width="4.84" height="4.84" transform="translate(216.87 -355.68) rotate(13.29)" fill="#d43662"/><rect x="1637.15" y="751.57" width="4.84" height="4.84" transform="translate(217.25 -356.73) rotate(13.29)" fill="#d43662"/><rect x="1639.38" y="742.16" width="4.84" height="4.84" transform="translate(215.15 -357.49) rotate(13.29)" fill="#d43662"/><rect x="1649.9" y="739.68" width="4.84" height="4.84" transform="translate(214.86 -359.98) rotate(13.29)" fill="#d43662"/><rect x="1652.13" y="730.26" width="4.84" height="4.84" transform="translate(212.75 -360.74) rotate(13.29)" fill="#d43662"/><rect x="1653.5" y="745.5" width="4.84" height="4.84" transform="translate(216.29 -360.65) rotate(13.29)" fill="#e9908f"/><rect x="1651.02" y="734.97" width="4.84" height="4.84" transform="translate(213.8 -360.36) rotate(13.29)" fill="#e9908f"/><rect x="1640.49" y="737.45" width="4.84" height="4.84" transform="translate(214.09 -357.87) rotate(13.29)" fill="#e9908f"/><rect x="1632.19" y="730.52" width="4.84" height="4.84" transform="translate(212.28 -356.15) rotate(13.29)" fill="#e9908f"/><rect x="1633.3" y="725.81" width="4.84" height="4.84" transform="translate(211.23 -356.53) rotate(13.29)" fill="#ac50bd"/><rect x="1639.12" y="722.22" width="4.84" height="4.84" transform="translate(210.55 -357.97) rotate(13.29)" fill="#ac50bd"/><rect x="1642.71" y="728.04" width="4.84" height="4.84" transform="translate(211.99 -358.64) rotate(13.29)" fill="#ac50bd"/><rect x="1643.83" y="723.33" width="4.84" height="4.84" transform="translate(210.94 -359.02) rotate(13.29)" fill="#b7fb7b"/><rect x="1648.53" y="724.44" width="4.84" height="4.84" transform="translate(211.32 -360.07) rotate(13.29)" fill="#b7fb7b"/><rect x="1640.23" y="717.51" width="4.84" height="4.84" transform="translate(209.5 -358.35) rotate(13.29)" fill="#b7fb7b"/><rect x="1635.52" y="716.4" width="4.84" height="4.84" transform="translate(209.12 -357.3) rotate(13.29)" fill="#b7fb7b"/><rect x="1659.06" y="721.96" width="4.84" height="4.84" transform="translate(211.03 -362.56) rotate(13.29)" fill="#b7fb7b"/><rect x="1655.46" y="716.14" width="4.84" height="4.84" transform="translate(209.59 -361.89) rotate(13.29)" fill="#b7fb7b"/><rect x="1650.76" y="715.03" width="4.84" height="4.84" transform="translate(209.21 -360.84) rotate(13.29)" fill="#b7fb7b"/><rect x="1649.65" y="719.73" width="4.84" height="4.84" transform="translate(210.27 -360.45) rotate(13.29)" fill="#92dcac"/><rect x="1654.35" y="720.85" width="4.84" height="4.84" transform="translate(210.65 -361.51) rotate(13.29)" fill="#92dcac"/><rect x="1662.66" y="727.78" width="4.84" height="4.84" transform="translate(212.46 -363.23) rotate(13.29)" fill="#92dcac"/><rect x="1629.7" y="719.99" width="4.84" height="4.84" transform="translate(209.79 -355.86) rotate(13.29)" fill="#92dcac"/><rect x="1616.95" y="731.89" width="4.84" height="4.84" transform="translate(212.18 -352.61) rotate(13.29)" fill="#fefdff"/><rect x="1613.36" y="726.07" width="4.84" height="4.84" transform="translate(210.75 -351.94) rotate(13.29)" fill="#fefdff"/><rect x="1609.76" y="720.25" width="4.84" height="4.84" transform="translate(209.32 -351.27) rotate(13.29)" fill="#fefdff"/><rect x="1608.65" y="724.96" width="4.84" height="4.84" transform="translate(210.37 -350.89) rotate(13.29)" fill="#fefdff"/><rect x="1605.05" y="719.14" width="4.84" height="4.84" transform="translate(208.93 -350.22) rotate(13.29)" fill="#fefdff"/><rect x="1603.94" y="723.85" width="4.84" height="4.84" transform="translate(209.99 -349.84) rotate(13.29)" fill="#fefdff"/><rect x="1600.35" y="718.03" width="4.84" height="4.84" transform="translate(208.55 -349.17) rotate(13.29)" fill="#fefdff"/><rect x="1612.24" y="730.78" width="4.84" height="4.84" transform="translate(211.8 -351.56) rotate(13.29)" fill="#fefdff"/><rect x="1607.54" y="729.67" width="4.84" height="4.84" transform="translate(211.42 -350.51) rotate(13.29)" fill="#fefdff"/><rect x="1606.43" y="734.37" width="4.84" height="4.84" transform="translate(212.47 -350.13) rotate(13.29)" fill="#fefdff"/><rect x="1611.13" y="735.49" width="4.84" height="4.84" transform="translate(212.86 -351.18) rotate(13.29)" fill="#fefdff"/><rect x="1610.02" y="740.19" width="4.84" height="4.84" transform="translate(213.91 -350.8) rotate(13.29)" fill="#fefdff"/><rect x="1608.91" y="744.9" width="4.84" height="4.84" transform="translate(214.96 -350.41) rotate(13.29)" fill="#fefdff"/><rect x="1605.31" y="739.08" width="4.84" height="4.84" transform="translate(213.53 -349.74) rotate(13.29)" fill="#fefdff"/><rect x="1602.83" y="728.56" width="4.84" height="4.84" transform="translate(211.04 -349.46) rotate(13.29)" fill="#fefdff"/><rect x="1601.72" y="733.26" width="4.84" height="4.84" transform="translate(212.09 -349.07) rotate(13.29)" fill="#fefdff"/><rect x="1600.61" y="737.97" width="4.84" height="4.84" transform="translate(213.14 -348.69) rotate(13.29)" fill="#fefdff"/><rect x="1598.12" y="727.44" width="4.84" height="4.84" transform="translate(210.66 -348.4) rotate(13.29)" fill="#fefdff"/><rect x="1597.01" y="732.15" width="4.84" height="4.84" transform="translate(211.71 -348.02) rotate(13.29)" fill="#fefdff"/><rect x="1595.9" y="736.86" width="4.84" height="4.84" transform="translate(212.76 -347.64) rotate(13.29)" fill="#fefdff"/><rect x="1604.2" y="743.79" width="4.84" height="4.84" transform="translate(214.58 -349.36) rotate(13.29)" fill="#fefdff"/><rect x="1599.23" y="722.74" width="4.84" height="4.84" transform="translate(209.61 -348.78) rotate(13.29)" fill="#fefdff"/><rect x="1595.64" y="716.92" width="4.84" height="4.84" transform="translate(208.17 -348.11) rotate(13.29)" fill="#fefdff"/><rect x="1590.93" y="715.8" width="4.84" height="4.84" transform="translate(207.79 -347.06) rotate(13.29)" fill="#fefdff"/><rect x="1586.22" y="714.69" width="4.84" height="4.84" transform="translate(207.41 -346.01) rotate(13.29)" fill="#fefdff"/><rect x="1584" y="724.11" width="4.84" height="4.84" transform="translate(209.51 -345.25) rotate(13.29)" fill="#fefdff"/><rect x="1588.71" y="725.22" width="4.84" height="4.84" transform="translate(209.89 -346.3) rotate(13.29)" fill="#fefdff"/><rect x="1587.6" y="729.93" width="4.84" height="4.84" transform="translate(210.95 -345.92) rotate(13.29)" fill="#fefdff"/><rect x="1581.52" y="713.58" width="4.84" height="4.84" transform="translate(207.03 -344.96) rotate(13.29)" fill="#fefdff"/><rect x="1576.81" y="712.47" width="4.84" height="4.84" transform="translate(206.64 -343.9) rotate(13.29)" fill="#fefdff"/><rect x="1572.1" y="711.36" width="4.84" height="4.84" transform="translate(206.26 -342.85) rotate(13.29)" fill="#fefdff"/><rect x="1615.84" y="736.6" width="4.84" height="4.84" transform="translate(213.24 -352.23) rotate(13.29)" fill="#fefdff"/><rect x="1647.42" y="729.15" width="4.84" height="4.84" transform="translate(212.37 -359.69) rotate(13.29)" fill="#ac50bd"/><rect x="1653.24" y="725.55" width="4.84" height="4.84" transform="translate(211.7 -361.12) rotate(13.29)" fill="#ac50bd"/><rect x="1656.84" y="731.37" width="4.84" height="4.84" transform="translate(213.13 -361.8) rotate(13.29)" fill="#ac50bd"/><rect x="1660.43" y="737.19" width="4.84" height="4.84" transform="translate(214.57 -362.47) rotate(13.29)" fill="#d43662"/><rect x="1645.2" y="738.56" width="4.84" height="4.84" transform="translate(214.48 -358.93) rotate(13.29)" fill="#d43662"/><rect x="1631.07" y="735.23" width="4.84" height="4.84" transform="translate(213.33 -355.77) rotate(13.29)" fill="#d43662"/><rect x="1627.48" y="729.41" width="4.84" height="4.84" transform="translate(211.9 -355.1) rotate(13.29)" fill="#d43662"/><rect x="1646.57" y="753.8" width="4.84" height="4.84" transform="translate(218.01 -358.83) rotate(13.29)" fill="#d43662"/><rect x="1641.86" y="752.69" width="4.84" height="4.84" transform="translate(217.63 -357.78) rotate(13.29)" fill="#d43662"/><rect x="1640.75" y="757.39" width="4.84" height="4.84" transform="translate(218.68 -357.4) rotate(13.29)" fill="#d43662"/><rect x="1636.04" y="756.28" width="4.84" height="4.84" transform="translate(218.3 -356.35) rotate(13.29)" fill="#d43662"/><rect x="1655.72" y="736.08" width="4.84" height="4.84" transform="translate(214.19 -361.41) rotate(13.29)" fill="#dd506f"/><rect x="1647.68" y="749.09" width="4.84" height="4.84" transform="translate(216.96 -359.22) rotate(13.29)" fill="#dd506f"/><rect x="1575.7" y="717.18" width="4.84" height="4.84" transform="translate(207.7 -343.52) rotate(13.29)" fill="#d9f6f1"/><rect x="1580.4" y="718.29" width="4.84" height="4.84" transform="translate(208.08 -344.57) rotate(13.29)" fill="#d9f6f1"/><rect x="1585.11" y="719.4" width="4.84" height="4.84" transform="translate(208.46 -345.63) rotate(13.29)" fill="#d9f6f1"/><rect x="1589.82" y="720.51" width="4.84" height="4.84" transform="translate(208.84 -346.68) rotate(13.29)" fill="#d9f6f1"/><rect x="1594.53" y="721.62" width="4.84" height="4.84" transform="translate(209.22 -347.73) rotate(13.29)" fill="#d9f6f1"/><rect x="1592.3" y="731.04" width="4.84" height="4.84" transform="translate(211.33 -346.97) rotate(13.29)" fill="#d9f6f1"/><rect x="1593.41" y="726.33" width="4.84" height="4.84" transform="translate(210.28 -347.35) rotate(13.29)" fill="#d9f6f1"/><rect x="1668.73" y="744.12" width="4.84" height="4.84" transform="translate(3125.92 1857.27) rotate(-166.71)" fill="#fefdff"/><rect x="1674.55" y="740.53" width="4.84" height="4.84" transform="translate(3138.23 1851.52) rotate(-166.71)" fill="#fefdff"/><rect x="1680.37" y="736.93" width="4.84" height="4.84" transform="translate(3150.54 1845.76) rotate(-166.71)" fill="#fefdff"/><rect x="1679.26" y="741.64" width="4.84" height="4.84" transform="translate(3147.27 1854.79) rotate(-166.71)" fill="#fefdff"/><rect x="1685.08" y="738.04" width="4.84" height="4.84" transform="translate(3159.58 1849.04) rotate(-166.71)" fill="#fefdff"/><rect x="1683.97" y="742.75" width="4.84" height="4.84" transform="translate(3156.3 1858.07) rotate(-166.71)" fill="#fefdff"/><rect x="1689.79" y="739.16" width="4.84" height="4.84" transform="translate(3168.61 1852.31) rotate(-166.71)" fill="#fefdff"/><rect x="1673.44" y="745.24" width="4.84" height="4.84" transform="translate(3134.96 1860.55) rotate(-166.71)" fill="#fefdff"/><rect x="1678.15" y="746.35" width="4.84" height="4.84" transform="translate(3143.99 1863.83) rotate(-166.71)" fill="#fefdff"/><rect x="1677.04" y="751.06" width="4.84" height="4.84" transform="translate(3140.71 1872.86) rotate(-166.71)" fill="#fefdff"/><rect x="1672.33" y="749.94" width="4.84" height="4.84" transform="translate(3131.68 1869.58) rotate(-166.71)" fill="#fefdff"/><rect x="1671.22" y="754.65" width="4.84" height="4.84" transform="translate(3128.4 1878.62) rotate(-166.71)" fill="#fefdff"/><rect x="1670.11" y="759.36" width="4.84" height="4.84" transform="translate(3125.13 1887.65) rotate(-166.71)" fill="#fefdff"/><rect x="1675.93" y="755.76" width="4.84" height="4.84" transform="translate(3137.44 1881.89) rotate(-166.71)" fill="#fefdff"/><rect x="1682.86" y="747.46" width="4.84" height="4.84" transform="translate(3153.02 1867.1) rotate(-166.71)" fill="#fefdff"/><rect x="1681.75" y="752.17" width="4.84" height="4.84" transform="translate(3149.75 1876.14) rotate(-166.71)" fill="#fefdff"/><rect x="1680.63" y="756.87" width="4.84" height="4.84" transform="translate(3146.47 1885.17) rotate(-166.71)" fill="#fefdff"/><rect x="1687.56" y="748.57" width="4.84" height="4.84" transform="translate(3162.06 1870.38) rotate(-166.71)" fill="#fefdff"/><rect x="1686.45" y="753.28" width="4.84" height="4.84" transform="translate(3158.78 1879.41) rotate(-166.71)" fill="#fefdff"/><rect x="1685.34" y="757.99" width="4.84" height="4.84" transform="translate(3155.5 1888.45) rotate(-166.71)" fill="#fefdff"/><rect x="1674.81" y="760.47" width="4.84" height="4.84" transform="translate(3134.16 1890.93) rotate(-166.71)" fill="#fefdff"/><rect x="1688.68" y="743.86" width="4.84" height="4.84" transform="translate(3165.33 1861.35) rotate(-166.71)" fill="#fefdff"/><rect x="1694.5" y="740.27" width="4.84" height="4.84" transform="translate(3177.64 1855.59) rotate(-166.71)" fill="#fefdff"/><rect x="1699.2" y="741.38" width="4.84" height="4.84" transform="translate(3186.68 1858.87) rotate(-166.71)" fill="#fefdff"/><rect x="1703.91" y="742.49" width="4.84" height="4.84" transform="translate(3195.71 1862.14) rotate(-166.71)" fill="#fefdff"/><rect x="1701.69" y="751.91" width="4.84" height="4.84" transform="translate(3189.16 1880.21) rotate(-166.71)" fill="#fefdff"/><rect x="1696.98" y="750.8" width="4.84" height="4.84" transform="translate(3180.12 1876.93) rotate(-166.71)" fill="#fefdff"/><rect x="1695.87" y="755.5" width="4.84" height="4.84" transform="translate(3176.85 1885.97) rotate(-166.71)" fill="#fefdff"/><rect x="1708.62" y="743.6" width="4.84" height="4.84" transform="translate(3204.74 1865.42) rotate(-166.71)" fill="#fefdff"/><rect x="1713.33" y="744.72" width="4.84" height="4.84" transform="translate(3213.78 1868.69) rotate(-166.71)" fill="#fefdff"/><rect x="1718.03" y="745.83" width="4.84" height="4.84" transform="translate(3222.81 1871.97) rotate(-166.71)" fill="#fefdff"/><rect x="1667.62" y="748.83" width="4.84" height="4.84" transform="translate(3122.65 1866.31) rotate(-166.71)" fill="#fefdff"/><rect x="1712.21" y="749.42" width="4.84" height="4.84" transform="translate(3210.5 1877.73) rotate(-166.71)" fill="#d9f6f1"/><rect x="1707.51" y="748.31" width="4.84" height="4.84" transform="translate(3201.47 1874.45) rotate(-166.71)" fill="#d9f6f1"/><rect x="1702.8" y="747.2" width="4.84" height="4.84" transform="translate(3192.43 1871.18) rotate(-166.71)" fill="#d9f6f1"/><rect x="1698.09" y="746.09" width="4.84" height="4.84" transform="translate(3183.4 1867.9) rotate(-166.71)" fill="#d9f6f1"/><rect x="1693.38" y="744.98" width="4.84" height="4.84" transform="translate(3174.37 1864.62) rotate(-166.71)" fill="#d9f6f1"/><rect x="1691.16" y="754.39" width="4.84" height="4.84" transform="translate(3167.81 1882.69) rotate(-166.71)" fill="#d9f6f1"/><rect x="1692.27" y="749.68" width="4.84" height="4.84" transform="translate(3171.09 1873.66) rotate(-166.71)" fill="#d9f6f1"/></g><g id="c"><g><rect x="1634.41" y="721.1" width="4.84" height="4.84" transform="translate(556.39 2150.18) rotate(-76.71)" fill="#232323"/><rect x="1657.95" y="726.66" width="4.84" height="4.84" transform="translate(569.11 2177.37) rotate(-76.71)" fill="#232323"/><path d="M1724.47,741.74l-1.18-.28h0l-4.71-1.11h0l-3.53-.83-4.71-1.11-4.71-1.11-4.71-1.11-4.71-1.11-4.71-1.11-4.71-1.11-4.71-1.11-4.71-1.11-1.11,4.71-4.71-1.11,1.11-4.71,1.11-4.71-4.71-1.11,1.11-4.71-4.71-1.11,1.11-4.71-4.71-1.11-4.71-1.11-4.71-1.11-4.71-1.11-1.11,4.71-4.71-1.11-4.71-1.11-4.71-1.11-1.11,4.71-4.71-1.11-1.11,4.71-1.11,4.71-4.71-1.11,1.11-4.71-4.71-1.11-4.71-1.11-4.71-1.11-4.71-1.11-4.71-1.11-4.71-1.11-4.71-1.11-4.71-1.11-4.71-1.11-4.71-1.11-4.71-1.11-1.11,4.71-1.11,4.71-1.11,4.71,4.71,1.11-1.11,4.71,4.71,1.11,4.71,1.11-1.11,4.71,4.71,1.11-1.11,4.71,4.71,1.11,4.71,1.11-1.11,4.71,4.71,1.11,4.71,1.11-1.11,4.71,4.71,1.11,4.71,1.11,4.71,1.11,4.71,1.11,1.11-4.71,4.71,1.11-1.11,4.71,4.71,1.11-1.11,4.71,4.71,1.11-1.11,4.71,4.71,1.11,4.71,1.11,4.71,1.11,4.71,1.11,1.11-4.71,4.71,1.11,1.11-4.71,4.71,1.11,1.11-4.71,4.71,1.11-1.11,4.71,4.71,1.11,4.71,1.11,4.71,1.11,4.71,1.11,1.11-4.71,4.71,1.11,4.71,1.11,1.11-4.71,4.71,1.11,4.71,1.11,1.11-4.71,4.71,1.11,1.11-4.71,4.71,1.11,4.71,1.11,1.11-4.71,4.71,1.11,1.11-4.71,1.11-4.71,1.11-4.71-4.71-1.11Zm-116.06,7.38l-4.71-1.11,1.11-4.71-4.71-1.11-4.71-1.11,1.11-4.71-4.71-1.11-4.71-1.11,1.11-4.71-4.71-1.11,1.11-4.71-4.71-1.11-4.71-1.11,1.11-4.71-4.71-1.11,1.11-4.71,4.71,1.11,4.71,1.11,4.71,1.11,4.71,1.11,4.71,1.11,4.71,1.11,4.71,1.11,4.71,1.11,4.71,1.11-1.11,4.71,4.71,1.11-1.11,4.71,4.71,1.11-1.11,4.71-1.11,4.71-4.71-1.11-1.11,4.71-1.11,4.71-4.71-1.11Zm48.19,6.41l-1.11,4.71-4.71-1.11-1.11,4.71-4.71-1.11-1.11,4.71-4.71-1.11-4.71-1.11,1.11-4.71-4.71-1.11,1.11-4.71-4.71-1.11,1.11-4.71-4.71-1.11,1.11-4.71,1.11-4.71,1.11-4.71,1.11-4.71,4.71,1.11,1.11-4.71-4.71-1.11,1.11-4.71,4.71,1.11,1.11-4.71,4.71,1.11,4.71,1.11-1.11,4.71,4.71,1.11,1.11-4.71,1.11-4.71,4.71,1.11,4.71,1.11-1.11,4.71,4.71,1.11-1.11,4.71,4.71,1.11-1.11,4.71-4.71-1.11-1.11,4.71,4.71,1.11-1.11,4.71-1.11,4.71-1.11,4.71-1.11,4.71-4.71-1.11Zm65.65-4.37l-4.71-1.11-1.11,4.71-4.71-1.11-4.71-1.11-1.11,4.71-4.71-1.11-1.11,4.71-4.71-1.11-4.71-1.11-1.11,4.71-4.71-1.11-4.71-1.11-1.11,4.71-4.71-1.11-4.71-1.11,1.11-4.71,1.11-4.71-4.71-1.11,1.11-4.71,1.11-4.71,4.71,1.11,1.11-4.71,4.71,1.11,1.11-4.71,4.71,1.11,4.71,1.11,4.71,1.11,4.71,1.11,4.71,1.11,4.71,1.11,4.71,1.11,4.71,1.11,4.71,1.11-1.11,4.71Z" fill="#232323"/></g></g></svg>